<?xml version="1.0" standalone="no"?>
<!DOCTYPE svg PUBLIC "-//W3C//DTD SVG 20010904//EN" "http://www.w3.org/TR/2001/REC-SVG-20010904/DTD/svg10.dtd">
<svg version="1.0" xmlns="http://www.w3.org/2000/svg" width="1737.000000pt" height="400.000000pt"
    viewBox="0 0 1737.000000 400.000000" preserveAspectRatio="xMidYMid meet">

    <g transform="translate(0.000000,400.000000) scale(0.100000,-0.100000)" fill="#ffffff" stroke="none">
        <path d="M2420 3730 l0 -270 193 -2 192 -3 3 -637 2 -638 285 0 285 0 0 640 0
640 195 0 195 0 0 270 0 270 -675 0 -675 0 0 -270z" />
        <path d="M3870 3090 l0 -910 285 0 285 0 0 345 0 345 200 0 200 0 0 -345 0
-345 285 0 285 0 0 910 0 910 -285 0 -285 0 0 -305 0 -305 -200 0 -200 0 0
305 0 305 -285 0 -285 0 0 -910z" />
        <path d="M5572 3093 l3 -908 638 -3 637 -2 0 235 0 235 -350 0 -350 0 0 115 0
115 325 0 325 0 0 210 0 210 -325 0 -325 0 0 115 0 115 340 0 340 0 0 235 0
235 -630 0 -630 0 2 -907z" />
        <path d="M913 3918 c-272 -216 -498 -544 -588 -855 -55 -188 -76 -425 -57
-628 10 -100 9 -111 -6 -119 -9 -4 -46 -38 -82 -75 -192 -196 -227 -511 -99
-884 34 -98 118 -287 128 -287 3 0 15 19 25 41 27 56 124 143 207 184 75 38
236 88 256 81 9 -4 13 -25 13 -63 0 -32 3 -95 7 -140 l6 -82 30 16 c151 78
324 81 467 8 l50 -25 0 140 c0 115 3 142 15 146 21 8 185 -41 258 -77 34 -16
83 -47 110 -67 47 -36 117 -125 117 -150 0 -64 81 99 145 293 98 296 98 521 0
720 -38 78 -91 146 -147 190 -37 30 -38 30 -31 85 12 91 6 328 -12 440 -56
369 -214 692 -468 957 -96 99 -232 213 -255 213 -6 0 -46 -28 -89 -62z m229
-1015 c70 -32 141 -103 174 -176 25 -53 29 -74 29 -147 -1 -72 -5 -94 -29
-142 -128 -266 -499 -272 -628 -10 -30 60 -33 75 -33 157 0 78 4 98 27 145 37
74 111 145 184 176 51 21 71 24 144 21 59 -2 100 -10 132 -24z" />
        <path d="M4715 1889 c-457 -58 -675 -360 -675 -934 0 -254 30 -414 108 -574
28 -58 56 -96 122 -161 139 -140 284 -195 537 -207 296 -13 508 51 659 202
112 111 172 236 210 440 28 145 26 469 -3 610 -65 316 -216 501 -478 584 -142
46 -318 60 -480 40z m240 -518 c86 -39 130 -130 147 -308 13 -128 0 -307 -27
-383 -35 -98 -88 -148 -177 -164 -97 -18 -198 50 -231 154 -49 157 -50 397 -2
558 19 63 82 138 129 151 51 15 118 12 161 -8z" />
        <path d="M6482 1890 c-463 -59 -682 -362 -682 -944 0 -235 46 -449 127 -596
145 -261 489 -386 895 -325 185 28 313 89 416 199 73 79 103 128 142 233 49
135 77 323 48 323 -7 0 -138 18 -292 40 -153 23 -280 39 -282 37 -2 -1 -8 -36
-15 -77 -16 -103 -44 -174 -86 -215 -84 -81 -236 -57 -297 48 -90 154 -85 551
7 692 35 53 81 79 152 83 78 5 126 -15 166 -71 34 -47 46 -84 62 -194 10 -75
13 -82 32 -78 11 2 133 18 270 35 138 17 261 34 274 36 23 5 24 7 18 87 -14
193 -86 366 -200 481 -103 105 -204 157 -369 191 -87 19 -292 26 -386 15z" />
        <path d="M12491 1889 c-294 -36 -489 -176 -555 -398 -59 -199 -10 -441 115
-576 91 -97 156 -126 447 -199 261 -66 302 -81 328 -121 23 -35 11 -90 -24
-113 -37 -24 -194 -24 -239 0 -42 24 -72 67 -82 123 -5 25 -10 47 -12 49 -2 2
-121 -7 -264 -20 -143 -13 -270 -23 -282 -23 -21 -1 -23 -6 -23 -49 0 -120 63
-265 154 -356 147 -147 410 -221 696 -196 219 20 368 79 486 195 112 110 161
224 170 400 10 176 -34 313 -131 404 -89 85 -172 117 -476 185 -300 68 -354
95 -333 168 16 54 53 73 152 76 75 3 93 0 131 -20 55 -28 78 -59 95 -124 11
-43 16 -49 37 -47 75 7 429 44 457 49 30 5 32 7 32 48 0 59 -34 188 -66 246
-75 139 -235 243 -438 286 -89 19 -278 26 -375 13z" />
        <path d="M2472 953 l3 -908 285 0 285 0 3 314 2 314 85 -6 c46 -3 94 -11 105
-17 41 -22 60 -85 86 -273 27 -201 41 -279 57 -314 l10 -23 304 0 303 0 0 22
c0 11 -11 44 -25 72 -16 33 -41 132 -69 278 -25 125 -54 244 -65 266 -24 48
-78 96 -125 113 -20 7 -36 18 -36 24 0 6 24 21 54 34 107 44 171 125 202 257
23 98 15 345 -13 424 -63 172 -152 256 -328 307 -53 15 -123 18 -593 21 l-532
3 2 -908z m821 446 c54 -15 70 -46 74 -143 3 -64 0 -88 -14 -116 -27 -51 -52
-60 -185 -60 l-118 0 0 165 0 165 103 0 c56 0 119 -5 140 -11z" />
        <path d="M7562 953 l3 -908 285 0 285 0 3 218 2 219 67 114 c37 62 70 110 73
106 4 -4 46 -140 94 -302 48 -162 94 -310 101 -328 l14 -32 290 0 c184 0 292
4 296 10 3 6 -9 52 -29 103 -19 50 -78 207 -131 347 -53 140 -128 336 -165
435 -38 99 -73 191 -78 205 -9 23 12 63 192 370 l202 345 -285 3 c-157 1 -291
0 -296 -2 -6 -2 -92 -157 -191 -344 -98 -188 -183 -337 -187 -333 -5 5 -1 59
8 122 9 63 19 214 22 337 l6 222 -292 0 -291 0 2 -907z" />
        <path d="M9162 953 l3 -908 635 0 635 0 3 232 2 233 -350 0 -350 0 0 115 0
115 320 0 320 0 0 210 0 210 -320 0 -320 0 0 115 0 115 340 0 340 0 0 235 0
235 -630 0 -630 0 2 -907z" />
        <path d="M10480 1590 l0 -270 195 0 195 0 2 -637 3 -638 285 0 285 0 3 638 2
637 190 0 190 0 0 270 0 270 -675 0 -675 0 0 -270z" />
        <path d="M13532 953 l3 -908 285 0 285 0 3 343 2 342 195 0 195 0 2 -342 3
-343 285 0 285 0 3 908 2 907 -290 0 -290 0 0 -305 0 -305 -195 0 -195 0 0
305 0 305 -290 0 -290 0 2 -907z" />
        <path d="M15222 953 l3 -908 285 0 285 0 3 908 2 907 -290 0 -290 0 2 -907z" />
        <path d="M15942 953 l3 -908 285 0 285 0 3 233 2 232 193 0 c127 0 215 5 259
14 196 42 317 165 374 381 16 58 19 107 19 280 0 232 -10 291 -67 413 -37 79
-126 170 -199 205 -112 52 -166 57 -684 57 l-475 0 2 -907z m783 433 c46 -30
65 -88 65 -201 0 -174 -44 -225 -192 -225 l-78 0 0 226 0 226 89 -4 c62 -3 96
-9 116 -22z" />
        <path d="M924 1010 c-93 -19 -168 -70 -198 -135 -27 -55 -24 -222 4 -310 46
-143 246 -521 272 -513 31 11 226 401 268 535 29 96 28 235 -3 293 -51 97
-211 158 -343 130z" />
    </g>
</svg>